# xmcd
#
# Track frame offsets:
# 150
# 21281
# 38508
# 56769
# 74318
# 93434
# 112956
# 125279
# 144579
# 171701
# 188384
#
# Disc length: 2745 seconds
#
#
# Revision: 0
# Processed by: cddbd v1.5.2PL0 Copyright (c) Steve Scherf et al.
# Submitted via: FreeRIP 2.945 
#
DISCID=930ab70b
DTITLE=Lindomar - Mensagens - Lindomar - Mensagens
DYEAR=1900
DGENRE=
TTITLE0=Oracao de um Jovem triste
TTITLE1=Alo Meu deus
TTITLE2=Maria de Nazare
TTITLE3=Tudo vem de Voce
TTITLE4=Oracao pela Familia
TTITLE5=Menino de rua
TTITLE6=Oracao de sao francisco
TTITLE7=Meu Caminho
TTITLE8=Historia de Maria
TTITLE9=Gente Humilde
TTITLE10=A padroeira
EXTD=
EXTT0=
EXTT1=
EXTT2=
EXTT3=
EXTT4=
EXTT5=
EXTT6=
EXTT7=
EXTT8=
EXTT9=
EXTT10=
PLAYORDER=
